<svg width="53" height="53" viewBox="0 0 53 53" fill="none" xmlns="http://www.w3.org/2000/svg">
<circle cx="26.5" cy="26.5" r="26" fill="#8BCB99" stroke="#7EB68A"/>
<path d="M30.4528 22.0836V24.5797H34.4822H38.476L30.4528 18.9457V22.0836Z" fill="white"/>
<path d="M23.4637 23.7953H28.3132V23.1891H23.4637V20.7286H28.3132V20.1224H16.6528V36.0619H36.8357V26.1844H23.4637V23.7596V23.7953ZM22.8931 35.4913H17.259V32.8169H22.8931V35.4913ZM22.8931 32.2464H17.259V29.8216H22.8931V32.2464ZM22.8931 29.2154H17.259V26.7906H22.8931V29.2154ZM22.8931 26.22H17.259V23.7953H22.8931V26.22ZM22.8931 23.1891H17.259V20.7286H22.8931V23.1891ZM36.2651 35.4913H23.4993V32.8169H36.2651V35.4913ZM36.2651 32.2464H23.4993V29.8216H36.2651V32.2464ZM36.2651 26.7906V29.2154H23.4993V26.7906H36.2651Z" fill="white"/>
<path d="M45.3937 14.0961C45.2154 13.9178 44.8945 13.9178 44.7162 14.0961C44.5379 14.2744 44.5379 14.5953 44.7162 14.7736C44.8945 14.9519 45.0015 15.2015 45.0015 15.4511C45.0015 15.7007 44.8945 15.9503 44.7162 16.1286C44.5379 16.3069 44.2883 16.4139 44.0387 16.4139C43.7891 16.4139 43.5395 16.3069 43.3612 16.1286C43.1829 15.9503 43.0759 15.7007 43.0759 15.4511C43.0759 15.2015 43.1829 14.9519 43.3612 14.7736C43.5395 14.5953 43.5395 14.2744 43.3612 14.0961C43.1829 13.9178 42.862 13.9178 42.6837 14.0961C42.3271 14.4527 42.1131 14.9162 42.1131 15.4511C42.1131 15.986 42.3271 16.4496 42.6837 16.8061C42.8976 17.0201 43.1829 17.1984 43.4682 17.2697C43.3255 19.4092 41.8992 21.1208 39.938 21.7984V17.4123H38.1907C37.2636 12.5271 32.5209 8.78293 26.7442 8.78293C20.9675 8.78293 16.2249 12.5271 15.2978 17.4123H13.5505V21.727C11.5893 21.0495 10.1986 19.3736 10.0203 17.1984C10.3056 17.0914 10.5908 16.9488 10.8048 16.7348C11.1614 16.3782 11.3753 15.9147 11.3753 15.3798C11.3753 14.8449 11.1614 14.3813 10.8048 14.0248C10.6265 13.8465 10.3056 13.8465 10.1273 14.0248C9.94896 14.2031 9.94896 14.524 10.1273 14.7023C10.3056 14.8806 10.4125 15.1302 10.4125 15.3798C10.4125 15.6651 10.3056 15.879 10.1273 16.0573C9.94896 16.2356 9.73501 16.3426 9.44974 16.3426C9.16447 16.3426 8.95052 16.2356 8.77223 16.0573C8.59393 15.879 8.48696 15.6294 8.48696 15.3798C8.48696 15.1302 8.59393 14.8806 8.77223 14.7023C8.95052 14.524 8.95052 14.2031 8.77223 14.0248C8.59393 13.8465 8.273 13.8465 8.09471 14.0248C7.73812 14.3813 7.52417 14.8449 7.52417 15.3798C7.52417 15.9147 7.73812 16.3782 8.09471 16.7348C8.34432 16.9844 8.70091 17.1627 9.0575 17.2697C9.16447 18.8743 9.87765 20.265 10.9474 21.2635C11.6606 21.941 12.5521 22.4402 13.5505 22.7255V38.8432H15.7613C15.0482 39.9843 14.2993 41.1611 13.5862 42.3021C17.2233 43.5502 21.2171 43.5502 24.8543 42.3021C24.1411 41.1611 23.3923 39.9843 22.6791 38.8432H30.8093C30.0961 39.9843 29.3473 41.1611 28.6341 42.3021C32.2713 43.5502 36.2651 43.5502 39.9023 42.3021C39.1891 41.1611 38.4403 39.9843 37.7271 38.8432H39.9736V22.7968C40.9721 22.5115 41.8635 22.0123 42.5767 21.3348C43.6465 20.3364 44.3596 18.91 44.4666 17.341C44.8232 17.2697 45.1798 17.0914 45.4294 16.8061C45.786 16.4496 45.9999 15.986 45.9999 15.4511C45.9999 14.9162 45.786 14.4527 45.4294 14.0961H45.3937ZM33.5194 12.955C34.1969 12.955 34.7318 13.4899 34.7318 14.1674C34.7318 14.8449 34.1969 15.3798 33.5194 15.3798C32.8419 15.3798 32.307 14.8449 32.307 14.1674C32.307 13.4899 32.8419 12.955 33.5194 12.955ZM23.0714 15.0232H30.4884V16.6992H23.0714V15.0232ZM20.0047 12.955C20.6822 12.955 21.2171 13.4899 21.2171 14.1674C21.2171 14.8449 20.6822 15.3798 20.0047 15.3798C19.3272 15.3798 18.7923 14.8449 18.7923 14.1674C18.7923 13.4899 19.3272 12.955 20.0047 12.955ZM38.4759 20.1581V37.3099H15.0838V18.9457H38.4759V20.1937V20.1581Z" fill="white"/>
</svg>
